<mxfile host="Electron" modified="2023-06-26T01:36:44.939Z" agent="Mozilla/5.0 (Windows NT 10.0; Win64; x64) AppleWebKit/537.36 (KHTML, like Gecko) draw.io/21.2.1 Chrome/112.0.5615.87 Electron/24.1.2 Safari/537.36" etag="xQl4rwX7u140c_eDzGLb" version="21.2.1" type="device">
  <diagram name="Page-1" id="9361dd3d-8414-5efd-6122-117bd74ce7a7">
    <mxGraphModel dx="698" dy="420" grid="1" gridSize="10" guides="1" tooltips="1" connect="1" arrows="1" fold="1" page="0" pageScale="1.5" pageWidth="826" pageHeight="1169" background="none" math="0" shadow="0">
      <root>
        <mxCell id="0" />
        <mxCell id="1" parent="0" />
        <mxCell id="SreTkNQVUK-VUiZ0MXE6-84" value="" style="fillColor=#DEE8FF;strokeColor=none;" parent="1" vertex="1">
          <mxGeometry x="510" y="400" width="420" height="480" as="geometry" />
        </mxCell>
        <mxCell id="SreTkNQVUK-VUiZ0MXE6-85" value="" style="shape=cylinder3;whiteSpace=wrap;html=1;boundedLbl=1;backgroundOutline=1;size=15;fillColor=none;strokeColor=#f35d58;strokeWidth=6;" parent="1" vertex="1">
          <mxGeometry x="520" y="460" width="400" height="410" as="geometry" />
        </mxCell>
        <mxCell id="SreTkNQVUK-VUiZ0MXE6-86" value="" style="endArrow=none;html=1;exitX=0;exitY=0.5;exitDx=0;exitDy=0;exitPerimeter=0;entryX=1;entryY=0.5;entryDx=0;entryDy=0;entryPerimeter=0;curved=1;endFill=0;strokeColor=#f35d58;strokeWidth=3;" parent="1" source="SreTkNQVUK-VUiZ0MXE6-85" target="SreTkNQVUK-VUiZ0MXE6-85" edge="1">
          <mxGeometry width="50" height="50" relative="1" as="geometry">
            <mxPoint x="740" y="740" as="sourcePoint" />
            <mxPoint x="790" y="690" as="targetPoint" />
            <Array as="points">
              <mxPoint x="720" y="670" />
            </Array>
          </mxGeometry>
        </mxCell>
        <mxCell id="SreTkNQVUK-VUiZ0MXE6-87" value="&lt;font style=&quot;font-size: 16px;&quot;&gt;BSQL API&lt;/font&gt;" style="rounded=0;whiteSpace=wrap;html=1;fillColor=#E6E6E6;strokeColor=#36393d;" parent="1" vertex="1">
          <mxGeometry x="582" y="550" width="120" height="40" as="geometry" />
        </mxCell>
        <mxCell id="SreTkNQVUK-VUiZ0MXE6-88" value="&lt;font style=&quot;font-size: 16px;&quot;&gt;BCQL API&lt;/font&gt;" style="rounded=0;whiteSpace=wrap;html=1;fillColor=#E6E6E6;strokeColor=#36393d;" parent="1" vertex="1">
          <mxGeometry x="722" y="550" width="120" height="40" as="geometry" />
        </mxCell>
        <mxCell id="SreTkNQVUK-VUiZ0MXE6-89" value="&lt;font style=&quot;font-size: 16px;&quot;&gt;Pluggable Query Engine&lt;/font&gt;" style="rounded=0;whiteSpace=wrap;html=1;fillColor=#E6E6E6;strokeColor=#36393d;" parent="1" vertex="1">
          <mxGeometry x="582" y="601" width="260" height="40" as="geometry" />
        </mxCell>
        <mxCell id="SreTkNQVUK-VUiZ0MXE6-90" value="&lt;font style=&quot;font-size: 28px;&quot;&gt;&lt;b&gt;BMDB&lt;/b&gt;&lt;/font&gt;" style="text;html=1;strokeColor=none;fillColor=none;align=center;verticalAlign=middle;whiteSpace=wrap;rounded=0;" parent="1" vertex="1">
          <mxGeometry x="680.01" y="413" width="60" height="30" as="geometry" />
        </mxCell>
        <mxCell id="SreTkNQVUK-VUiZ0MXE6-91" value="&lt;font style=&quot;font-size: 20px;&quot;&gt;&lt;b&gt;BigMath Query Layer&lt;/b&gt;&lt;/font&gt;" style="text;html=1;strokeColor=none;fillColor=none;align=center;verticalAlign=middle;whiteSpace=wrap;rounded=0;" parent="1" vertex="1">
          <mxGeometry x="601.88" y="503" width="216.25" height="30" as="geometry" />
        </mxCell>
        <mxCell id="SreTkNQVUK-VUiZ0MXE6-92" value="&lt;font style=&quot;font-size: 20px;&quot;&gt;&lt;b&gt;DocDB Document Store&lt;/b&gt;&lt;/font&gt;" style="text;html=1;strokeColor=none;fillColor=none;align=center;verticalAlign=middle;whiteSpace=wrap;rounded=0;" parent="1" vertex="1">
          <mxGeometry x="590.9499999999999" y="675" width="238.12" height="30" as="geometry" />
        </mxCell>
        <mxCell id="SreTkNQVUK-VUiZ0MXE6-93" value="&lt;span style=&quot;font-size: 16px;&quot;&gt;Auto Sharding &amp;amp; Load Balancing&lt;/span&gt;" style="rounded=0;whiteSpace=wrap;html=1;fillColor=#E6E6E6;strokeColor=#36393d;" parent="1" vertex="1">
          <mxGeometry x="529" y="710" width="120" height="80" as="geometry" />
        </mxCell>
        <mxCell id="SreTkNQVUK-VUiZ0MXE6-94" value="&lt;span style=&quot;font-size: 16px;&quot;&gt;Raft Consensus&lt;br&gt;Replication&lt;br&gt;&lt;/span&gt;" style="rounded=0;whiteSpace=wrap;html=1;fillColor=#E6E6E6;strokeColor=#36393d;" parent="1" vertex="1">
          <mxGeometry x="654.01" y="710" width="120" height="80" as="geometry" />
        </mxCell>
        <mxCell id="SreTkNQVUK-VUiZ0MXE6-95" value="&lt;span style=&quot;font-size: 16px;&quot;&gt;Distributed Transaction Manager &amp;amp; MVCC&lt;br&gt;&lt;/span&gt;" style="rounded=0;whiteSpace=wrap;html=1;fillColor=#E6E6E6;strokeColor=#36393d;" parent="1" vertex="1">
          <mxGeometry x="779" y="710" width="132" height="80" as="geometry" />
        </mxCell>
        <mxCell id="SreTkNQVUK-VUiZ0MXE6-96" value="&lt;span style=&quot;font-size: 16px;&quot;&gt;Document Storage Layer&lt;br&gt;&lt;br&gt;&lt;/span&gt;" style="rounded=0;whiteSpace=wrap;html=1;fillColor=#E6E6E6;strokeColor=#36393d;" parent="1" vertex="1">
          <mxGeometry x="580" y="798" width="290" height="60" as="geometry" />
        </mxCell>
        <mxCell id="SreTkNQVUK-VUiZ0MXE6-97" value="&lt;font style=&quot;font-size: 14px;&quot;&gt;RocksDB Storage Engine&lt;/font&gt;" style="rounded=0;whiteSpace=wrap;html=1;fillColor=none;" parent="1" vertex="1">
          <mxGeometry x="640" y="828" width="170" height="30" as="geometry" />
        </mxCell>
      </root>
    </mxGraphModel>
  </diagram>
</mxfile>
